<?xml version="1.0" encoding="UTF-8" standalone="no"?>
<!DOCTYPE svg PUBLIC "-//W3C//DTD SVG 1.0//EN" "http://www.w3.org/TR/2001/PR-SVG-20010719/DTD/svg10.dtd">
<svg width="43cm" height="43cm" viewBox="336 -195 847 860" xmlns="http://www.w3.org/2000/svg" xmlns:xlink="http://www.w3.org/1999/xlink">
  <g>
    <path style="fill: #c9c9b6" d="M 706.047 133.392 L 724.642,116.04 L 863.482,116.04 L 844.917,133.392 L 706.047,133.392z"/>
    <path style="fill: none; fill-opacity:0; stroke-width: 0.02; stroke: #494936" d="M 706.047 133.392 L 724.642,116.04 L 863.482,116.04 L 844.917,133.392 L 706.047,133.392"/>
    <path style="fill: #b7b79d" d="M 706.047 133.392 L 844.917,133.392 L 844.917,159.478 L 706.047,159.478 L 706.047,133.392z"/>
    <path style="fill: none; fill-opacity:0; stroke-width: 0.02; stroke: #494936" d="M 706.047 133.392 L 844.917,133.392 L 844.917,159.478 L 706.047,159.478 L 706.047,133.392"/>
    <path style="fill: #7a7a5a" d="M 844.917 159.478 L 863.482,140.972 L 863.482,116.04 L 844.917,133.392 L 844.917,159.478z"/>
    <path style="fill: none; fill-opacity:0; stroke-width: 0.02; stroke: #494936" d="M 844.917 159.478 L 863.482,140.972 L 863.482,116.04 L 844.917,133.392 L 844.917,159.478"/>
    <path style="fill: #000000" d="M 710.459 130.134 L 724.642,116.04 L 860.195,116.04 L 845.983,130.134 L 710.459,130.134z"/>
    <path style="fill: none; fill-opacity:0; stroke-width: 0.02; stroke: #000000" d="M 710.459 130.134 L 724.642,116.04 L 860.195,116.04 L 845.983,130.134 L 710.459,130.134"/>
    <path style="fill: #c9c9b6" d="M 706.047 18.1207 L 721.385,4.02645 L 860.195,4.02645 L 844.917,18.1207 L 706.047,18.1207z"/>
    <path style="fill: none; fill-opacity:0; stroke-width: 0.02; stroke: #494936" d="M 706.047 18.1207 L 721.385,4.02645 L 860.195,4.02645 L 844.917,18.1207 L 706.047,18.1207"/>
    <path style="fill: #b7b79d" d="M 706.047 18.1207 L 845.953,18.1207 L 845.953,127.973 L 706.047,127.973 L 706.047,18.1207z"/>
    <path style="fill: none; fill-opacity:0; stroke-width: 0.02; stroke: #494936" d="M 706.047 18.1207 L 845.923,18.1207 L 845.923,127.914 L 706.047,127.914 L 706.047,18.1207"/>
    <path style="fill: #ffffff" d="M 718.157 32.2742 L 833.991,32.2742 L 833.991,117.106 L 718.157,117.106 L 718.157,32.2742z"/>
    <path style="fill: none; fill-opacity:0; stroke-width: 0.02; stroke: #494936" d="M 718.157 32.2742 L 833.961,32.2742 L 833.961,117.047 L 718.157,117.047 L 718.157,32.2742"/>
    <path style="fill: #7a7a5a" d="M 844.917 126.818 L 860.195,111.628 L 860.195,4.02645 L 844.917,18.1207 L 844.917,126.818z"/>
    <path style="fill: none; fill-opacity:0; stroke-width: 0.02; stroke: #494936" d="M 844.917 126.818 L 860.195,111.628 L 860.195,4.02645 L 844.917,18.1207 L 844.917,126.818"/>
    <path style="fill: #c9c9b6" d="M 678.776 181.211 L 700.628,154.059 L 851.401,154.059 L 829.579,181.211 L 678.776,181.211z"/>
    <path style="fill: none; fill-opacity:0; stroke-width: 0.02; stroke: #494936" d="M 678.924 181.034 L 700.628,154.059 L 851.401,154.059 L 829.579,181.211 L 678.924,181.211"/>
    <path style="fill: #7a7a5a" d="M 829.579 186.689 L 851.401,163.83 L 851.401,154.059 L 829.579,181.211 L 829.579,186.689z"/>
    <path style="fill: none; fill-opacity:0; stroke-width: 0.02; stroke: #494936" d="M 829.668 186.541 L 851.401,163.83 L 851.401,154.059 L 829.579,181.211 L 829.579,186.541"/>
    <path style="fill: #b7b79d" d="M 678.776 181.211 L 829.579,181.211 L 829.579,186.689 L 678.776,186.689 L 678.776,181.211z"/>
    <path style="fill: none; fill-opacity:0; stroke-width: 0.02; stroke: #494936" d="M 678.924 181.211 L 829.579,181.211 L 829.579,186.541"/>
  </g>
  <g>
    <path style="fill: #0078aa" d="M 1030.11 298.095 L 1030.01,297.132 L 1029.82,296.168 L 1029.48,295.22 L 1029,294.287 L 1028.36,293.338 L 1027.61,292.421 L 1026.71,291.518 L 1025.7,290.631 L 1024.54,289.759 L 1023.25,288.918 L 1021.86,288.107 L 1020.35,287.281 L 1018.71,286.501 L 1016.97,285.767 L 1015.1,285.064 L 1013.14,284.391 L 1011.11,283.733 L 1008.97,283.136 L 1006.75,282.571 L 1004.44,282.035 L 1002.05,281.546 L 999.592,281.133 L 997.084,280.705 L 994.545,280.368 L 991.929,280.047 L 989.268,279.802 L 986.576,279.573 L 983.853,279.42 L 981.131,279.267 L 978.378,279.221 L 975.625,279.175 L 975.625,279.175 L 972.856,279.221 L 970.103,279.267 L 967.381,279.42 L 964.658,279.573 L 961.966,279.802 L 959.305,280.047 L 956.689,280.368 L 954.135,280.705 L 951.626,281.133 L 949.179,281.546 L 946.793,282.035 L 944.484,282.571 L 942.266,283.136 L 940.125,283.733 L 938.075,284.391 L 936.132,285.064 L 934.266,285.767 L 932.523,286.501 L 930.886,287.281 L 929.372,288.107 L 927.98,288.918 L 926.695,289.759 L 925.533,290.631 L 924.523,291.518 L 923.621,292.421 L 922.872,293.338 L 922.229,294.287 L 921.74,295.22 L 921.388,296.168 L 921.204,297.132 L 921.128,298.095 L 921.128,298.095 L 921.204,299.043 L 921.388,300.007 L 921.74,300.955 L 922.229,301.888 L 922.872,302.837 L 923.621,303.754 L 924.523,304.657 L 925.533,305.544 L 926.695,306.416 L 927.98,307.257 L 929.372,308.098 L 930.886,308.894 L 932.523,309.674 L 934.266,310.408 L 936.132,311.142 L 938.075,311.815 L 940.125,312.442 L 942.266,313.054 L 944.484,313.604 L 946.793,314.14 L 949.179,314.629 L 951.626,315.073 L 954.135,315.47 L 956.689,315.838 L 959.305,316.128 L 961.966,316.403 L 964.658,316.602 L 967.381,316.786 L 970.103,316.908 L 972.856,316.985 L 975.625,317 L 975.625,317 L 978.378,316.985 L 981.131,316.908 L 983.853,316.786 L 986.576,316.602 L 989.268,316.403 L 991.929,316.128 L 994.545,315.838 L 997.084,315.47 L 999.592,315.073 L 1002.05,314.629 L 1004.44,314.14 L 1006.75,313.604 L 1008.97,313.054 L 1011.11,312.442 L 1013.14,311.815 L 1015.1,311.142 L 1016.97,310.408 L 1018.71,309.674 L 1020.35,308.894 L 1021.86,308.098 L 1023.25,307.257 L 1024.54,306.416 L 1025.7,305.544 L 1026.71,304.657 L 1027.61,303.754 L 1028.36,302.837 L 1029,301.888 L 1029.48,300.955 L 1029.82,300.007 L 1030.01,299.043 L 1030.11,298.095z"/>
    <path style="fill: none; fill-opacity:0; stroke-width: 0.02; stroke: #aae6ff" d="M 1029.46 297.789 L 1029.39,296.826 L 1029.2,295.908 L 1028.85,294.96 L 1028.38,294.042 L 1027.75,293.124 L 1026.96,292.222 L 1026.13,291.35 L 1025.09,290.463 L 1023.94,289.606 L 1022.67,288.75 L 1021.27,287.954 L 1019.77,287.159 L 1018.15,286.394 L 1016.42,285.66 L 1014.58,284.957 L 1012.62,284.314 L 1010.57,283.702 L 1008.46,283.075 L 1006.26,282.555 L 1003.97,282.005 L 1001.58,281.53 L 999.164,281.102 L 996.686,280.705 L 994.132,280.368 L 991.547,280.047 L 988.886,279.802 L 986.224,279.573 L 983.517,279.42 L 980.794,279.313 L 978.057,279.221 L 975.319,279.221 L 975.319,279.221 L 972.55,279.221 L 969.828,279.313 L 967.09,279.42 L 964.413,279.573 L 961.737,279.802 L 959.091,280.047 L 956.49,280.368 L 953.936,280.705 L 951.443,281.102 L 949.026,281.53 L 946.64,282.005 L 944.346,282.555 L 942.159,283.075 L 940.033,283.702 L 937.983,284.314 L 936.041,284.957 L 934.221,285.66 L 932.492,286.394 L 930.856,287.159 L 929.326,287.954 L 927.965,288.75 L 926.68,289.606 L 925.533,290.463 L 924.523,291.35 L 923.636,292.222 L 922.872,293.124 L 922.26,294.042 L 921.77,294.96 L 921.418,295.908 L 921.22,296.826 L 921.143,297.789 L 921.143,297.789 L 921.22,298.722 L 921.418,299.686 L 921.77,300.588 L 922.26,301.521 L 922.872,302.454 L 923.636,303.341 L 924.523,304.229 L 925.533,305.116 L 926.68,305.957 L 927.965,306.813 L 929.326,307.624 L 930.856,308.389 L 932.492,309.169 L 934.221,309.918 L 936.041,310.591 L 937.983,311.249 L 940.033,311.876 L 942.159,312.488 L 944.346,313.023 L 946.64,313.543 L 949.026,314.033 L 951.443,314.461 L 953.936,314.843 L 956.49,315.21 L 959.091,315.516 L 961.737,315.761 L 964.413,315.975 L 967.09,316.128 L 969.828,316.266 L 972.55,316.342 L 975.319,316.358 L 975.319,316.358 L 978.057,316.342 L 980.794,316.266 L 983.517,316.128 L 986.224,315.975 L 988.886,315.761 L 991.547,315.516 L 994.132,315.21 L 996.686,314.843 L 999.164,314.461 L 1001.58,314.033 L 1003.97,313.543 L 1006.26,313.023 L 1008.46,312.488 L 1010.57,311.876 L 1012.62,311.249 L 1014.58,310.591 L 1016.42,309.918 L 1018.15,309.169 L 1019.77,308.389 L 1021.27,307.624 L 1022.67,306.813 L 1023.94,305.957 L 1025.09,305.116 L 1026.13,304.229 L 1026.96,303.341 L 1027.75,302.454 L 1028.38,301.521 L 1028.85,300.588 L 1029.2,299.686 L 1029.39,298.722 L 1029.46,297.789"/>
    <path style="fill: #0078aa" d="M 921.143 271.894 L 921.143,298.447 L 1029.46,298.447 L 1029.46,271.894 L 921.143,271.894z"/>
    <path style="fill: #00b4ff" d="M 1030.11 271.573 L 1030.01,270.61 L 1029.82,269.631 L 1029.48,268.698 L 1029,267.749 L 1028.36,266.801 L 1027.61,265.883 L 1026.71,264.981 L 1025.7,264.109 L 1024.54,263.222 L 1023.25,262.396 L 1021.86,261.555 L 1020.35,260.76 L 1018.71,259.964 L 1016.97,259.245 L 1015.1,258.526 L 1013.14,257.838 L 1011.11,257.196 L 1008.97,256.599 L 1006.75,256.033 L 1004.44,255.513 L 1002.05,255.039 L 999.592,254.58 L 997.084,254.183 L 994.545,253.816 L 991.929,253.51 L 989.268,253.25 L 986.576,253.036 L 983.853,252.867 L 981.131,252.745 L 978.378,252.668 L 975.625,252.653 L 975.625,252.653 L 972.856,252.668 L 970.103,252.745 L 967.381,252.867 L 964.658,253.036 L 961.966,253.25 L 959.305,253.51 L 956.689,253.816 L 954.135,254.183 L 951.626,254.58 L 949.179,255.039 L 946.793,255.513 L 944.484,256.033 L 942.266,256.599 L 940.125,257.196 L 938.075,257.838 L 936.132,258.526 L 934.266,259.245 L 932.523,259.964 L 930.886,260.76 L 929.372,261.555 L 927.98,262.396 L 926.695,263.222 L 925.533,264.109 L 924.523,264.981 L 923.621,265.883 L 922.872,266.801 L 922.229,267.749 L 921.74,268.698 L 921.388,269.631 L 921.204,270.61 L 921.128,271.573 L 921.128,271.573 L 921.204,272.522 L 921.388,273.485 L 921.74,274.433 L 922.229,275.351 L 922.872,276.299 L 923.621,277.217 L 924.523,278.12 L 925.533,279.022 L 926.695,279.894 L 927.98,280.72 L 929.372,281.546 L 930.886,282.372 L 932.523,283.136 L 934.266,283.871 L 936.132,284.589 L 938.075,285.262 L 940.125,285.92 L 942.266,286.501 L 944.484,287.067 L 946.793,287.603 L 949.179,288.107 L 951.626,288.52 L 954.135,288.933 L 956.689,289.3 L 959.305,289.591 L 961.966,289.851 L 964.658,290.065 L 967.381,290.233 L 970.103,290.371 L 972.856,290.448 L 975.625,290.463 L 975.625,290.463 L 978.378,290.448 L 981.131,290.371 L 983.853,290.233 L 986.576,290.065 L 989.268,289.851 L 991.929,289.591 L 994.545,289.3 L 997.084,288.933 L 999.592,288.52 L 1002.05,288.107 L 1004.44,287.603 L 1006.75,287.067 L 1008.97,286.501 L 1011.11,285.92 L 1013.14,285.262 L 1015.1,284.589 L 1016.97,283.871 L 1018.71,283.136 L 1020.35,282.372 L 1021.86,281.546 L 1023.25,280.72 L 1024.54,279.894 L 1025.7,279.022 L 1026.71,278.12 L 1027.61,277.217 L 1028.36,276.299 L 1029,275.351 L 1029.48,274.433 L 1029.82,273.485 L 1030.01,272.522 L 1030.11,271.573z"/>
    <path style="fill: none; fill-opacity:0; stroke-width: 0.02; stroke: #aae6ff" d="M 1029.46 271.252 L 1029.39,270.288 L 1029.2,269.371 L 1028.85,268.438 L 1028.38,267.505 L 1027.75,266.602 L 1026.96,265.669 L 1026.13,264.813 L 1025.09,263.926 L 1023.94,263.084 L 1022.67,262.213 L 1021.27,261.433 L 1019.77,260.622 L 1018.15,259.857 L 1016.42,259.154 L 1014.58,258.419 L 1012.62,257.808 L 1010.57,257.15 L 1008.46,256.553 L 1006.26,256.003 L 1003.97,255.467 L 1001.58,254.993 L 999.164,254.565 L 996.686,254.183 L 994.132,253.816 L 991.547,253.51 L 988.886,253.265 L 986.224,253.036 L 983.517,252.883 L 980.794,252.76 L 978.057,252.684 L 975.319,252.668 L 975.319,252.668 L 972.55,252.684 L 969.828,252.76 L 967.09,252.883 L 964.413,253.036 L 961.737,253.265 L 959.091,253.51 L 956.49,253.816 L 953.936,254.183 L 951.443,254.565 L 949.026,254.993 L 946.64,255.467 L 944.346,256.003 L 942.159,256.553 L 940.033,257.15 L 937.983,257.808 L 936.041,258.419 L 934.221,259.154 L 932.492,259.857 L 930.856,260.622 L 929.326,261.433 L 927.965,262.213 L 926.68,263.084 L 925.533,263.926 L 924.523,264.813 L 923.636,265.669 L 922.872,266.602 L 922.26,267.505 L 921.77,268.438 L 921.418,269.371 L 921.22,270.288 L 921.143,271.252 L 921.143,271.252 L 921.22,272.2 L 921.418,273.133 L 921.77,274.066 L 922.26,274.984 L 922.872,275.902 L 923.636,276.82 L 924.523,277.691 L 925.533,278.578 L 926.68,279.42 L 927.965,280.276 L 929.326,281.087 L 930.856,281.852 L 932.492,282.632 L 934.221,283.366 L 936.041,284.054 L 937.983,284.712 L 940.033,285.339 L 942.159,285.935 L 944.346,286.486 L 946.64,287.021 L 949.026,287.526 L 951.443,287.924 L 953.936,288.337 L 956.49,288.689 L 959.091,288.979 L 961.737,289.255 L 964.413,289.469 L 967.09,289.606 L 969.828,289.744 L 972.55,289.82 L 975.319,289.836 L 975.319,289.836 L 978.057,289.82 L 980.794,289.744 L 983.517,289.606 L 986.224,289.469 L 988.886,289.255 L 991.547,288.979 L 994.132,288.689 L 996.686,288.337 L 999.164,287.924 L 1001.58,287.526 L 1003.97,287.021 L 1006.26,286.486 L 1008.46,285.935 L 1010.57,285.339 L 1012.62,284.712 L 1014.58,284.054 L 1016.42,283.366 L 1018.15,282.632 L 1019.77,281.852 L 1021.27,281.087 L 1022.67,280.276 L 1023.94,279.42 L 1025.09,278.578 L 1026.13,277.691 L 1026.96,276.82 L 1027.75,275.902 L 1028.38,274.984 L 1028.85,274.066 L 1029.2,273.133 L 1029.39,272.2 L 1029.46,271.252"/>
    <path style="fill: #000000" d="M 976.634 267.275 L 984.557,269.937 L 1003.72,261.953 L 1012.3,264.599 L 1007.67,257.991 L 985.23,257.991 L 994.453,259.964 L 976.634,267.275z"/>
    <path style="fill: #000000" d="M 973.315 274.571 L 965.407,271.894 L 946.9,279.894 L 937.662,277.217 L 942.266,284.513 L 965.407,284.513 L 955.481,281.852 L 973.315,274.571z"/>
    <path style="fill: #000000" d="M 939.635 259.964 L 947.543,257.318 L 966.723,264.599 L 975.319,262.626 L 970.7,269.233 L 948.216,269.233 L 957.454,267.275 L 939.635,259.964z"/>
    <path style="fill: #000000" d="M 1010.97 282.509 L 1003.03,285.171 L 984.557,277.217 L 975.319,279.894 L 979.938,273.225 L 1003.03,273.225 L 993.138,275.214 L 1010.97,282.509z"/>
    <path style="fill: #ffffff" d="M 977.292 267.933 L 985.23,270.579 L 1004.35,262.626 L 1012.96,265.287 L 1008.33,258.634 L 985.872,258.634 L 995.126,260.607 L 977.292,267.933z"/>
    <path style="fill: #ffffff" d="M 973.988 275.214 L 966.035,272.567 L 947.543,280.521 L 938.304,277.875 L 942.924,285.171 L 966.035,285.171 L 956.139,282.509 L 973.988,275.214z"/>
    <path style="fill: #ffffff" d="M 940.293 260.607 L 948.216,257.991 L 967.381,265.287 L 975.961,263.268 L 971.357,269.937 L 948.873,269.937 L 958.142,267.933 L 940.293,260.607z"/>
    <path style="fill: #ffffff" d="M 1011.61 283.198 L 1003.72,285.844 L 985.23,277.875 L 975.961,280.521 L 980.58,273.913 L 1003.72,273.913 L 993.811,275.887 L 1011.61,283.198z"/>
    <path style="fill: none; fill-opacity:0; stroke-width: 0.02; stroke: #aae6ff" d="M 921.143 271.252 L 921.143,297.759"/>
    <path style="fill: none; fill-opacity:0; stroke-width: 0.02; stroke: #aae6ff" d="M 1029.46 271.252 L 1029.46,297.759"/>
  </g>
  <g>
    <path style="fill: #c9c9b6" d="M 463.091 611.388 L 481.686,594.037 L 620.527,594.037 L 601.961,611.388 L 463.091,611.388z"/>
    <path style="fill: none; fill-opacity:0; stroke-width: 0.02; stroke: #494936" d="M 463.091 611.388 L 481.686,594.037 L 620.527,594.037 L 601.961,611.388 L 463.091,611.388"/>
    <path style="fill: #b7b79d" d="M 463.091 611.388 L 601.961,611.388 L 601.961,637.474 L 463.091,637.474 L 463.091,611.388z"/>
    <path style="fill: none; fill-opacity:0; stroke-width: 0.02; stroke: #494936" d="M 463.091 611.388 L 601.961,611.388 L 601.961,637.474 L 463.091,637.474 L 463.091,611.388"/>
    <path style="fill: #7a7a5a" d="M 601.961 637.474 L 620.527,618.968 L 620.527,594.037 L 601.961,611.388 L 601.961,637.474z"/>
    <path style="fill: none; fill-opacity:0; stroke-width: 0.02; stroke: #494936" d="M 601.961 637.474 L 620.527,618.968 L 620.527,594.037 L 601.961,611.388 L 601.961,637.474"/>
    <path style="fill: #000000" d="M 467.503 608.131 L 481.686,594.037 L 617.24,594.037 L 603.027,608.131 L 467.503,608.131z"/>
    <path style="fill: none; fill-opacity:0; stroke-width: 0.02; stroke: #000000" d="M 467.503 608.131 L 481.686,594.037 L 617.24,594.037 L 603.027,608.131 L 467.503,608.131"/>
    <path style="fill: #c9c9b6" d="M 463.091 496.117 L 478.429,482.023 L 617.24,482.023 L 601.961,496.117 L 463.091,496.117z"/>
    <path style="fill: none; fill-opacity:0; stroke-width: 0.02; stroke: #494936" d="M 463.091 496.117 L 478.429,482.023 L 617.24,482.023 L 601.961,496.117 L 463.091,496.117"/>
    <path style="fill: #b7b79d" d="M 463.091 496.117 L 602.998,496.117 L 602.998,605.969 L 463.091,605.969 L 463.091,496.117z"/>
    <path style="fill: none; fill-opacity:0; stroke-width: 0.02; stroke: #494936" d="M 463.091 496.117 L 602.968,496.117 L 602.968,605.91 L 463.091,605.91 L 463.091,496.117"/>
    <path style="fill: #ffffff" d="M 475.202 510.271 L 591.035,510.271 L 591.035,595.103 L 475.202,595.103 L 475.202,510.271z"/>
    <path style="fill: none; fill-opacity:0; stroke-width: 0.02; stroke: #494936" d="M 475.202 510.271 L 591.006,510.271 L 591.006,595.043 L 475.202,595.043 L 475.202,510.271"/>
    <path style="fill: #7a7a5a" d="M 601.961 604.815 L 617.24,589.625 L 617.24,482.023 L 601.961,496.117 L 601.961,604.815z"/>
    <path style="fill: none; fill-opacity:0; stroke-width: 0.02; stroke: #494936" d="M 601.961 604.815 L 617.24,589.625 L 617.24,482.023 L 601.961,496.117 L 601.961,604.815"/>
    <path style="fill: #c9c9b6" d="M 435.821 659.208 L 457.673,632.056 L 608.446,632.056 L 586.623,659.208 L 435.821,659.208z"/>
    <path style="fill: none; fill-opacity:0; stroke-width: 0.02; stroke: #494936" d="M 435.969 659.03 L 457.673,632.056 L 608.446,632.056 L 586.623,659.208 L 435.969,659.208"/>
    <path style="fill: #7a7a5a" d="M 586.623 664.686 L 608.446,641.827 L 608.446,632.056 L 586.623,659.208 L 586.623,664.686z"/>
    <path style="fill: none; fill-opacity:0; stroke-width: 0.02; stroke: #494936" d="M 586.712 664.537 L 608.446,641.827 L 608.446,632.056 L 586.623,659.208 L 586.623,664.537"/>
    <path style="fill: #b7b79d" d="M 435.821 659.208 L 586.623,659.208 L 586.623,664.686 L 435.821,664.686 L 435.821,659.208z"/>
    <path style="fill: none; fill-opacity:0; stroke-width: 0.02; stroke: #494936" d="M 435.969 659.208 L 586.623,659.208 L 586.623,664.537"/>
  </g>
  <g>
    <path style="fill: #c9c9b6" d="M 891.891 611.388 L 910.486,594.037 L 1049.33,594.037 L 1030.76,611.388 L 891.891,611.388z"/>
    <path style="fill: none; fill-opacity:0; stroke-width: 0.02; stroke: #494936" d="M 891.891 611.388 L 910.486,594.037 L 1049.33,594.037 L 1030.76,611.388 L 891.891,611.388"/>
    <path style="fill: #b7b79d" d="M 891.891 611.388 L 1030.76,611.388 L 1030.76,637.474 L 891.891,637.474 L 891.891,611.388z"/>
    <path style="fill: none; fill-opacity:0; stroke-width: 0.02; stroke: #494936" d="M 891.891 611.388 L 1030.76,611.388 L 1030.76,637.474 L 891.891,637.474 L 891.891,611.388"/>
    <path style="fill: #7a7a5a" d="M 1030.76 637.474 L 1049.33,618.968 L 1049.33,594.037 L 1030.76,611.388 L 1030.76,637.474z"/>
    <path style="fill: none; fill-opacity:0; stroke-width: 0.02; stroke: #494936" d="M 1030.76 637.474 L 1049.33,618.968 L 1049.33,594.037 L 1030.76,611.388 L 1030.76,637.474"/>
    <path style="fill: #000000" d="M 896.303 608.131 L 910.486,594.037 L 1046.04,594.037 L 1031.83,608.131 L 896.303,608.131z"/>
    <path style="fill: none; fill-opacity:0; stroke-width: 0.02; stroke: #000000" d="M 896.303 608.131 L 910.486,594.037 L 1046.04,594.037 L 1031.83,608.131 L 896.303,608.131"/>
    <path style="fill: #c9c9b6" d="M 891.891 496.117 L 907.229,482.023 L 1046.04,482.023 L 1030.76,496.117 L 891.891,496.117z"/>
    <path style="fill: none; fill-opacity:0; stroke-width: 0.02; stroke: #494936" d="M 891.891 496.117 L 907.229,482.023 L 1046.04,482.023 L 1030.76,496.117 L 891.891,496.117"/>
    <path style="fill: #b7b79d" d="M 891.891 496.117 L 1031.8,496.117 L 1031.8,605.969 L 891.891,605.969 L 891.891,496.117z"/>
    <path style="fill: none; fill-opacity:0; stroke-width: 0.02; stroke: #494936" d="M 891.891 496.117 L 1031.77,496.117 L 1031.77,605.91 L 891.891,605.91 L 891.891,496.117"/>
    <path style="fill: #ffffff" d="M 904.002 510.271 L 1019.84,510.271 L 1019.84,595.103 L 904.002,595.103 L 904.002,510.271z"/>
    <path style="fill: none; fill-opacity:0; stroke-width: 0.02; stroke: #494936" d="M 904.002 510.271 L 1019.81,510.271 L 1019.81,595.043 L 904.002,595.043 L 904.002,510.271"/>
    <path style="fill: #7a7a5a" d="M 1030.76 604.815 L 1046.04,589.625 L 1046.04,482.023 L 1030.76,496.117 L 1030.76,604.815z"/>
    <path style="fill: none; fill-opacity:0; stroke-width: 0.02; stroke: #494936" d="M 1030.76 604.815 L 1046.04,589.625 L 1046.04,482.023 L 1030.76,496.117 L 1030.76,604.815"/>
    <path style="fill: #c9c9b6" d="M 864.621 659.208 L 886.473,632.056 L 1037.25,632.056 L 1015.42,659.208 L 864.621,659.208z"/>
    <path style="fill: none; fill-opacity:0; stroke-width: 0.02; stroke: #494936" d="M 864.769 659.03 L 886.473,632.056 L 1037.25,632.056 L 1015.42,659.208 L 864.769,659.208"/>
    <path style="fill: #7a7a5a" d="M 1015.42 664.686 L 1037.25,641.827 L 1037.25,632.056 L 1015.42,659.208 L 1015.42,664.686z"/>
    <path style="fill: none; fill-opacity:0; stroke-width: 0.02; stroke: #494936" d="M 1015.51 664.537 L 1037.25,641.827 L 1037.25,632.056 L 1015.42,659.208 L 1015.42,664.537"/>
    <path style="fill: #b7b79d" d="M 864.621 659.208 L 1015.42,659.208 L 1015.42,664.686 L 864.621,664.686 L 864.621,659.208z"/>
    <path style="fill: none; fill-opacity:0; stroke-width: 0.02; stroke: #494936" d="M 864.769 659.208 L 1015.42,659.208 L 1015.42,664.537"/>
  </g>
  <g>
    <path style="fill: #0078aa" d="M 605.788 289.452 L 605.696,288.488 L 605.498,287.525 L 605.161,286.577 L 604.687,285.644 L 604.045,284.695 L 603.295,283.778 L 602.393,282.875 L 601.383,281.988 L 600.221,281.116 L 598.936,280.275 L 597.544,279.464 L 596.03,278.638 L 594.393,277.858 L 592.65,277.124 L 590.784,276.421 L 588.826,275.748 L 586.792,275.09 L 584.65,274.493 L 582.432,273.927 L 580.123,273.392 L 577.737,272.903 L 575.274,272.49 L 572.766,272.061 L 570.227,271.725 L 567.611,271.404 L 564.95,271.159 L 562.258,270.93 L 559.536,270.777 L 556.813,270.624 L 554.06,270.578 L 551.307,270.532 L 551.307,270.532 L 548.538,270.578 L 545.785,270.624 L 543.063,270.777 L 540.34,270.93 L 537.648,271.159 L 534.987,271.404 L 532.371,271.725 L 529.817,272.061 L 527.309,272.49 L 524.861,272.903 L 522.475,273.392 L 520.166,273.927 L 517.948,274.493 L 515.807,275.09 L 513.757,275.748 L 511.815,276.421 L 509.949,277.124 L 508.205,277.858 L 506.568,278.638 L 505.054,279.464 L 503.662,280.275 L 502.377,281.116 L 501.215,281.988 L 500.206,282.875 L 499.303,283.778 L 498.554,284.695 L 497.911,285.644 L 497.422,286.577 L 497.07,287.525 L 496.886,288.488 L 496.81,289.452 L 496.81,289.452 L 496.886,290.4 L 497.07,291.364 L 497.422,292.312 L 497.911,293.245 L 498.554,294.194 L 499.303,295.111 L 500.206,296.014 L 501.215,296.901 L 502.377,297.773 L 503.662,298.614 L 505.054,299.455 L 506.568,300.25 L 508.205,301.03 L 509.949,301.765 L 511.815,302.499 L 513.757,303.172 L 515.807,303.799 L 517.948,304.411 L 520.166,304.961 L 522.475,305.497 L 524.861,305.986 L 527.309,306.43 L 529.817,306.827 L 532.371,307.194 L 534.987,307.485 L 537.648,307.76 L 540.34,307.959 L 543.063,308.143 L 545.785,308.265 L 548.538,308.342 L 551.307,308.357 L 551.307,308.357 L 554.06,308.342 L 556.813,308.265 L 559.536,308.143 L 562.258,307.959 L 564.95,307.76 L 567.611,307.485 L 570.227,307.194 L 572.766,306.827 L 575.274,306.43 L 577.737,305.986 L 580.123,305.497 L 582.432,304.961 L 584.65,304.411 L 586.792,303.799 L 588.826,303.172 L 590.784,302.499 L 592.65,301.765 L 594.393,301.03 L 596.03,300.25 L 597.544,299.455 L 598.936,298.614 L 600.221,297.773 L 601.383,296.901 L 602.393,296.014 L 603.295,295.111 L 604.045,294.194 L 604.687,293.245 L 605.161,292.312 L 605.498,291.364 L 605.696,290.4 L 605.788,289.452z"/>
    <path style="fill: none; fill-opacity:0; stroke-width: 0.02; stroke: #aae6ff" d="M 605.146 289.146 L 605.069,288.183 L 604.886,287.265 L 604.534,286.317 L 604.06,285.399 L 603.433,284.481 L 602.637,283.579 L 601.811,282.707 L 600.771,281.82 L 599.624,280.963 L 598.355,280.107 L 596.948,279.311 L 595.449,278.516 L 593.827,277.751 L 592.099,277.017 L 590.264,276.313 L 588.306,275.671 L 586.256,275.059 L 584.146,274.432 L 581.943,273.912 L 579.649,273.361 L 577.263,272.887 L 574.846,272.459 L 572.368,272.061 L 569.814,271.725 L 567.229,271.404 L 564.568,271.159 L 561.906,270.93 L 559.199,270.777 L 556.477,270.67 L 553.739,270.578 L 551.001,270.578 L 551.001,270.578 L 548.232,270.578 L 545.51,270.67 L 542.772,270.777 L 540.095,270.93 L 537.419,271.159 L 534.773,271.404 L 532.172,271.725 L 529.618,272.061 L 527.125,272.459 L 524.708,272.887 L 522.322,273.361 L 520.028,273.912 L 517.841,274.432 L 515.715,275.059 L 513.665,275.671 L 511.723,276.313 L 509.903,277.017 L 508.174,277.751 L 506.538,278.516 L 505.008,279.311 L 503.647,280.107 L 502.362,280.963 L 501.215,281.82 L 500.206,282.707 L 499.318,283.579 L 498.554,284.481 L 497.942,285.399 L 497.452,286.317 L 497.101,287.265 L 496.902,288.183 L 496.825,289.146 L 496.825,289.146 L 496.902,290.079 L 497.101,291.043 L 497.452,291.945 L 497.942,292.878 L 498.554,293.811 L 499.318,294.698 L 500.206,295.585 L 501.215,296.473 L 502.362,297.314 L 503.647,298.17 L 505.008,298.981 L 506.538,299.746 L 508.174,300.526 L 509.903,301.275 L 511.723,301.948 L 513.665,302.606 L 515.715,303.233 L 517.841,303.845 L 520.028,304.38 L 522.322,304.9 L 524.708,305.39 L 527.125,305.818 L 529.618,306.2 L 532.172,306.567 L 534.773,306.873 L 537.419,307.118 L 540.095,307.332 L 542.772,307.485 L 545.51,307.623 L 548.232,307.699 L 551.001,307.714 L 551.001,307.714 L 553.739,307.699 L 556.477,307.623 L 559.199,307.485 L 561.906,307.332 L 564.568,307.118 L 567.229,306.873 L 569.814,306.567 L 572.368,306.2 L 574.846,305.818 L 577.263,305.39 L 579.649,304.9 L 581.943,304.38 L 584.146,303.845 L 586.256,303.233 L 588.306,302.606 L 590.264,301.948 L 592.099,301.275 L 593.827,300.526 L 595.449,299.746 L 596.948,298.981 L 598.355,298.17 L 599.624,297.314 L 600.771,296.473 L 601.811,295.585 L 602.637,294.698 L 603.433,293.811 L 604.06,292.878 L 604.534,291.945 L 604.886,291.043 L 605.069,290.079 L 605.146,289.146"/>
    <path style="fill: #0078aa" d="M 496.825 263.251 L 496.825,289.804 L 605.146,289.804 L 605.146,263.251 L 496.825,263.251z"/>
    <path style="fill: #00b4ff" d="M 605.788 262.93 L 605.696,261.967 L 605.498,260.988 L 605.161,260.055 L 604.687,259.106 L 604.045,258.158 L 603.295,257.24 L 602.393,256.338 L 601.383,255.466 L 600.221,254.579 L 598.936,253.753 L 597.544,252.912 L 596.03,252.116 L 594.393,251.321 L 592.65,250.602 L 590.784,249.883 L 588.826,249.195 L 586.792,248.553 L 584.65,247.956 L 582.432,247.39 L 580.123,246.87 L 577.737,246.396 L 575.274,245.937 L 572.766,245.54 L 570.227,245.172 L 567.611,244.867 L 564.95,244.607 L 562.258,244.392 L 559.536,244.224 L 556.813,244.102 L 554.06,244.025 L 551.307,244.01 L 551.307,244.01 L 548.538,244.025 L 545.785,244.102 L 543.063,244.224 L 540.34,244.392 L 537.648,244.607 L 534.987,244.867 L 532.371,245.172 L 529.817,245.54 L 527.309,245.937 L 524.861,246.396 L 522.475,246.87 L 520.166,247.39 L 517.948,247.956 L 515.807,248.553 L 513.757,249.195 L 511.815,249.883 L 509.949,250.602 L 508.205,251.321 L 506.568,252.116 L 505.054,252.912 L 503.662,253.753 L 502.377,254.579 L 501.215,255.466 L 500.206,256.338 L 499.303,257.24 L 498.554,258.158 L 497.911,259.106 L 497.422,260.055 L 497.07,260.988 L 496.886,261.967 L 496.81,262.93 L 496.81,262.93 L 496.886,263.878 L 497.07,264.842 L 497.422,265.79 L 497.911,266.708 L 498.554,267.656 L 499.303,268.574 L 500.206,269.476 L 501.215,270.379 L 502.377,271.251 L 503.662,272.077 L 505.054,272.903 L 506.568,273.729 L 508.205,274.493 L 509.949,275.227 L 511.815,275.946 L 513.757,276.619 L 515.807,277.277 L 517.948,277.858 L 520.166,278.424 L 522.475,278.96 L 524.861,279.464 L 527.309,279.877 L 529.817,280.29 L 532.371,280.657 L 534.987,280.948 L 537.648,281.208 L 540.34,281.422 L 543.063,281.59 L 545.785,281.728 L 548.538,281.804 L 551.307,281.82 L 551.307,281.82 L 554.06,281.804 L 556.813,281.728 L 559.536,281.59 L 562.258,281.422 L 564.95,281.208 L 567.611,280.948 L 570.227,280.657 L 572.766,280.29 L 575.274,279.877 L 577.737,279.464 L 580.123,278.96 L 582.432,278.424 L 584.65,277.858 L 586.792,277.277 L 588.826,276.619 L 590.784,275.946 L 592.65,275.227 L 594.393,274.493 L 596.03,273.729 L 597.544,272.903 L 598.936,272.077 L 600.221,271.251 L 601.383,270.379 L 602.393,269.476 L 603.295,268.574 L 604.045,267.656 L 604.687,266.708 L 605.161,265.79 L 605.498,264.842 L 605.696,263.878 L 605.788,262.93z"/>
    <path style="fill: none; fill-opacity:0; stroke-width: 0.02; stroke: #aae6ff" d="M 605.146 262.609 L 605.069,261.645 L 604.886,260.728 L 604.534,259.795 L 604.06,258.862 L 603.433,257.959 L 602.637,257.026 L 601.811,256.17 L 600.771,255.283 L 599.624,254.441 L 598.355,253.569 L 596.948,252.789 L 595.449,251.979 L 593.827,251.214 L 592.099,250.51 L 590.264,249.776 L 588.306,249.164 L 586.256,248.507 L 584.146,247.91 L 581.943,247.36 L 579.649,246.824 L 577.263,246.35 L 574.846,245.922 L 572.368,245.54 L 569.814,245.172 L 567.229,244.867 L 564.568,244.622 L 561.906,244.392 L 559.199,244.239 L 556.477,244.117 L 553.739,244.041 L 551.001,244.025 L 551.001,244.025 L 548.232,244.041 L 545.51,244.117 L 542.772,244.239 L 540.095,244.392 L 537.419,244.622 L 534.773,244.867 L 532.172,245.172 L 529.618,245.54 L 527.125,245.922 L 524.708,246.35 L 522.322,246.824 L 520.028,247.36 L 517.841,247.91 L 515.715,248.507 L 513.665,249.164 L 511.723,249.776 L 509.903,250.51 L 508.174,251.214 L 506.538,251.979 L 505.008,252.789 L 503.647,253.569 L 502.362,254.441 L 501.215,255.283 L 500.206,256.17 L 499.318,257.026 L 498.554,257.959 L 497.942,258.862 L 497.452,259.795 L 497.101,260.728 L 496.902,261.645 L 496.825,262.609 L 496.825,262.609 L 496.902,263.557 L 497.101,264.49 L 497.452,265.423 L 497.942,266.341 L 498.554,267.259 L 499.318,268.176 L 500.206,269.048 L 501.215,269.935 L 502.362,270.777 L 503.647,271.633 L 505.008,272.444 L 506.538,273.209 L 508.174,273.989 L 509.903,274.723 L 511.723,275.411 L 513.665,276.069 L 515.715,276.696 L 517.841,277.292 L 520.028,277.843 L 522.322,278.378 L 524.708,278.883 L 527.125,279.281 L 529.618,279.694 L 532.172,280.045 L 534.773,280.336 L 537.419,280.611 L 540.095,280.826 L 542.772,280.963 L 545.51,281.101 L 548.232,281.177 L 551.001,281.193 L 551.001,281.193 L 553.739,281.177 L 556.477,281.101 L 559.199,280.963 L 561.906,280.826 L 564.568,280.611 L 567.229,280.336 L 569.814,280.045 L 572.368,279.694 L 574.846,279.281 L 577.263,278.883 L 579.649,278.378 L 581.943,277.843 L 584.146,277.292 L 586.256,276.696 L 588.306,276.069 L 590.264,275.411 L 592.099,274.723 L 593.827,273.989 L 595.449,273.209 L 596.948,272.444 L 598.355,271.633 L 599.624,270.777 L 600.771,269.935 L 601.811,269.048 L 602.637,268.176 L 603.433,267.259 L 604.06,266.341 L 604.534,265.423 L 604.886,264.49 L 605.069,263.557 L 605.146,262.609"/>
    <path style="fill: #000000" d="M 552.316 258.632 L 560.239,261.294 L 579.404,253.309 L 587.985,255.956 L 583.35,249.348 L 560.912,249.348 L 570.135,251.321 L 552.316,258.632z"/>
    <path style="fill: #000000" d="M 548.997 265.928 L 541.09,263.251 L 522.582,271.251 L 513.344,268.574 L 517.948,275.87 L 541.09,275.87 L 531.163,273.209 L 548.997,265.928z"/>
    <path style="fill: #000000" d="M 515.317 251.321 L 523.225,248.675 L 542.405,255.956 L 551.001,253.982 L 546.382,260.59 L 523.898,260.59 L 533.136,258.632 L 515.317,251.321z"/>
    <path style="fill: #000000" d="M 586.654 273.866 L 578.716,276.528 L 560.239,268.574 L 551.001,271.251 L 555.62,264.582 L 578.716,264.582 L 568.82,266.57 L 586.654,273.866z"/>
    <path style="fill: #ffffff" d="M 552.974 259.29 L 560.912,261.936 L 580.031,253.982 L 588.642,256.644 L 584.008,249.99 L 561.555,249.99 L 570.808,251.964 L 552.974,259.29z"/>
    <path style="fill: #ffffff" d="M 549.67 266.57 L 541.717,263.924 L 523.225,271.878 L 513.986,269.232 L 518.606,276.528 L 541.717,276.528 L 531.821,273.866 L 549.67,266.57z"/>
    <path style="fill: #ffffff" d="M 515.975 251.964 L 523.898,249.348 L 543.063,256.644 L 551.643,254.625 L 547.039,261.294 L 524.555,261.294 L 533.824,259.29 L 515.975,251.964z"/>
    <path style="fill: #ffffff" d="M 587.296 274.555 L 579.404,277.201 L 560.912,269.232 L 551.643,271.878 L 556.262,265.27 L 579.404,265.27 L 569.493,267.243 L 587.296,274.555z"/>
    <path style="fill: none; fill-opacity:0; stroke-width: 0.02; stroke: #aae6ff" d="M 496.825 262.609 L 496.825,289.116"/>
    <path style="fill: none; fill-opacity:0; stroke-width: 0.02; stroke: #aae6ff" d="M 605.146 262.609 L 605.146,289.116"/>
  </g>
  <g>
    <line style="fill: none; fill-opacity:0; stroke-width: 2; stroke: #000000" x1="678.776" y1="186.689" x2="560.081" y2="240.02"/>
    <polygon style="fill: #000000" points="553.239,243.094 560.312,234.434 560.081,240.02 564.41,243.556 "/>
    <polygon style="fill: none; fill-opacity:0; stroke-width: 2; stroke: #000000" points="553.239,243.094 560.312,234.434 560.081,240.02 564.41,243.556 "/>
  </g>
  <g>
    <line style="fill: none; fill-opacity:0; stroke-width: 2; stroke: #000000" x1="829.668" y1="186.689" x2="966.647" y2="248.641"/>
    <polygon style="fill: #000000" points="973.48,251.732 962.308,252.167 966.647,248.641 966.429,243.055 "/>
    <polygon style="fill: none; fill-opacity:0; stroke-width: 2; stroke: #000000" points="973.48,251.732 962.308,252.167 966.647,248.641 966.429,243.055 "/>
  </g>
  <g>
    <line style="fill: none; fill-opacity:0; stroke-width: 2; stroke: #000000" x1="547.835" y1="482.023" x2="547.991" y2="319.736"/>
    <polygon style="fill: #000000" points="547.998,312.236 552.988,322.241 547.991,319.736 542.988,322.231 "/>
    <polygon style="fill: none; fill-opacity:0; stroke-width: 2; stroke: #000000" points="547.998,312.236 552.988,322.241 547.991,319.736 542.988,322.231 "/>
  </g>
  <g>
    <line style="fill: none; fill-opacity:0; stroke-width: 2; stroke: #000000" x1="976.635" y1="482.023" x2="975.67" y2="326.736"/>
    <polygon style="fill: #000000" points="975.623,319.236 980.685,329.205 975.67,326.736 970.685,329.267 "/>
    <polygon style="fill: none; fill-opacity:0; stroke-width: 2; stroke: #000000" points="975.623,319.236 980.685,329.205 975.67,326.736 970.685,329.267 "/>
  </g>
  <g>
    <ellipse style="fill: #ffffff" cx="790.692" cy="-130.039" rx="63.3287" ry="63.3287"/>
    <ellipse style="fill: none; fill-opacity:0; stroke-width: 2; stroke: #000000" cx="790.692" cy="-130.039" rx="63.3287" ry="63.3287"/>
    <ellipse style="fill: none; fill-opacity:0; stroke-width: 2; stroke: #000000" cx="790.692" cy="-130.039" rx="63.3287" ry="63.3287"/>
  </g>
  <text font-size="12.7998" style="fill: #000000;text-anchor:start;font-family:sans-serif;font-style:normal;font-weight:normal" x="765.307" y="-122.633">
    <tspan x="765.307" y="-122.633">Internet</tspan>
  </text>
  <text font-size="12.7998" style="fill: #000000;text-anchor:start;font-family:sans-serif;font-style:normal;font-weight:normal" x="842.142" y="-180.045">
    <tspan x="842.142" y="-180.045">10.0.4.0/24</tspan>
  </text>
  <text font-size="12.7998" style="fill: #000000;text-anchor:start;font-family:sans-serif;font-style:normal;font-weight:normal" x="872.547" y="17.2378">
    <tspan x="872.547" y="17.2378"></tspan>
  </text>
  <text font-size="12.7998" style="fill: #000000;text-anchor:start;font-family:sans-serif;font-style:normal;font-weight:normal" x="872.547" y="-8.21807">
    <tspan x="872.547" y="-8.21807">10.0.4.15/24</tspan>
  </text>
  <text font-size="12.7998" style="fill: #000000;text-anchor:start;font-family:sans-serif;font-style:normal;font-weight:normal" x="884.568" y="169.973">
    <tspan x="884.568" y="169.973">172.22.160.1/23</tspan>
  </text>
  <text font-size="12.7998" style="fill: #000000;text-anchor:start;font-family:sans-serif;font-style:normal;font-weight:normal" x="569.198" y="170.68">
    <tspan x="569.198" y="170.68">172.22.128.1/19</tspan>
  </text>
  <text font-size="12.7998" style="fill: #000000;text-anchor:start;font-family:sans-serif;font-style:normal;font-weight:normal" x="1040.13" y="294.424">
    <tspan x="1040.13" y="294.424">172.22.160.0/23</tspan>
  </text>
  <text font-size="12.7998" style="fill: #000000;text-anchor:start;font-family:sans-serif;font-style:normal;font-weight:normal" x="387.472" y="278.16">
    <tspan x="387.472" y="278.16">172.22.128.0/19</tspan>
  </text>
  <text font-size="12.7998" style="fill: #000000;text-anchor:start;font-family:sans-serif;font-style:normal;font-weight:normal" x="1060.64" y="614.036">
    <tspan x="1060.64" y="614.036">172.22.160.100/23</tspan>
  </text>
  <text font-size="12.7998" style="fill: #000000;text-anchor:start;font-family:sans-serif;font-style:normal;font-weight:normal" x="336.56" y="609.793">
    <tspan x="336.56" y="609.793">172.22.128.100/19</tspan>
  </text>
  <g>
    <line style="fill: none; fill-opacity:0; stroke-width: 2; stroke: #000000" x1="790.692" y1="-66.7105" x2="790.777" y2="-5.70961"/>
    <polygon style="fill: #000000" points="790.787,1.79038 785.773,-8.20265 790.777,-5.70961 795.773,-8.21656 "/>
    <polygon style="fill: none; fill-opacity:0; stroke-width: 2; stroke: #000000" points="790.787,1.79038 785.773,-8.20265 790.777,-5.70961 795.773,-8.21656 "/>
  </g>
</svg>
